0
SECTION
2
HEADER
9
$INSUNITS
70
4
0
ENDSEC
0
SECTION
2
ENTITIES
0
LINE
8
WALLS
10
0
20
0
11
4000
21
0
0
LINE
8
WALLS
10
4000
20
0
11
4000
21
3000
0
LINE
8
WALLS
10
0
20
3000
11
0
21
0
0
LINE
8
WALLS
10
200
20
200
11
3800
21
200
0
LINE
8
WALLS
10
3800
20
200
11
3800
21
2800
0
LINE
8
WALLS
10
200
20
2800
11
200
21
200
0
LINE
8
WALLS
10
0
20
3000
11
2900
21
3000
0
LINE
8
WALLS
10
3500
20
3000
11
4000
21
3000
0
LINE
8
WALLS
10
200
20
2800
11
2900
21
2800
0
LINE
8
WALLS
10
3500
20
2800
11
3800
21
2800
0
LINE
8
WALLS
10
2900
20
2900
11
3500
21
2900
0
TEXT
8
MARKS
10
3200
20
3100
1
W1
0
LINE
8
WALLS
10
1400
20
200
11
1400
21
1200
0
LINE
8
WALLS
10
1600
20
200
11
1600
21
1200
0
LINE
8
WALLS
10
1400
20
2100
11
1400
21
2800
0
LINE
8
WALLS
10
1600
20
2100
11
1600
21
2800
0
ARC
8
DOORS
10
1500
20
1200
40
900
50
0
51
90
0
TEXT
8
MARKS
10
1500
20
1650
1
D1
0
LINE
8
WALLS
10
2450
20
200
11
2450
21
2800
0
LINE
8
WALLS
10
2550
20
200
11
2550
21
2800
0
LINE
8
GRID
10
0
20
-1000
11
0
21
4000
0
TEXT
8
GRID
10
0
20
-1500
1
A
0
LINE
8
GRID
10
4000
20
-1000
11
4000
21
4000
0
TEXT
8
GRID
10
4000
20
-1500
1
B
0
LINE
8
GRID
10
-1000
20
0
11
5000
21
0
0
TEXT
8
GRID
10
-1500
20
0
1
1
0
TEXT
8
NOTES
10
4500
20
4500
1
GROUND FLOOR PLAN
0
TEXT
8
NOTES
10
4500
20
4000
1
FFL +0.000
0
TEXT
8
ROOMS
10
700
20
1500
1
HALL
0
TEXT
8
ROOMS
10
2000
20
1500
1
DEN
0
TEXT
8
ROOMS
10
3200
20
1500
1
SNUG
0
ENDSEC
0
EOF
