0
SECTION
2
HEADER
9
$INSUNITS
70
4
0
ENDSEC
0
SECTION
2
ENTITIES
0
LINE
8
WALLS
10
12500
20
-8200
11
16500
21
-8200
0
LINE
8
WALLS
10
16500
20
-8200
11
16500
21
-5200
0
LINE
8
WALLS
10
12500
20
-5200
11
12500
21
-8200
0
LINE
8
WALLS
10
12700
20
-8000
11
16300
21
-8000
0
LINE
8
WALLS
10
16300
20
-8000
11
16300
21
-5400
0
LINE
8
WALLS
10
12700
20
-5400
11
12700
21
-8000
0
LINE
8
WALLS
10
12500
20
-5200
11
15400
21
-5200
0
LINE
8
WALLS
10
16000
20
-5200
11
16500
21
-5200
0
LINE
8
WALLS
10
12700
20
-5400
11
15400
21
-5400
0
LINE
8
WALLS
10
16000
20
-5400
11
16300
21
-5400
0
LINE
8
WALLS
10
15400
20
-5300
11
16000
21
-5300
0
TEXT
8
MARKS
10
15700
20
-5100
1
W2
0
LINE
8
WALLS
10
13900
20
-8000
11
13900
21
-7000
0
LINE
8
WALLS
10
14100
20
-8000
11
14100
21
-7000
0
LINE
8
WALLS
10
13900
20
-6100
11
13900
21
-5400
0
LINE
8
WALLS
10
14100
20
-6100
11
14100
21
-5400
0
ARC
8
DOORS
10
14000
20
-7000
40
900
50
0
51
90
0
TEXT
8
MARKS
10
14000
20
-6550
1
D2
0
LINE
8
WALLS
10
14950
20
-8000
11
14950
21
-5400
0
LINE
8
WALLS
10
15050
20
-8000
11
15050
21
-5400
0
LINE
8
GRID
10
12500
20
-9200
11
12500
21
-4200
0
TEXT
8
GRID
10
12500
20
-9700
1
A
0
LINE
8
GRID
10
16500
20
-9200
11
16500
21
-4200
0
TEXT
8
GRID
10
16500
20
-9700
1
B
0
LINE
8
GRID
10
11500
20
-8200
11
17500
21
-8200
0
TEXT
8
GRID
10
11000
20
-8200
1
1
0
TEXT
8
NOTES
10
17000
20
-3700
1
SECOND STOREY PLAN
0
TEXT
8
NOTES
10
17000
20
-4200
1
FFL +3.600
0
TEXT
8
ROOMS
10
13200
20
-6700
1
BED 1
0
TEXT
8
ROOMS
10
14500
20
-6700
1
BED 2
0
TEXT
8
ROOMS
10
15700
20
-6700
1
BED 3
0
ENDSEC
0
EOF
